<svg width="19" height="15" viewBox="0 0 19 15" fill="none" xmlns="http://www.w3.org/2000/svg">
<path opacity="0.5" d="M16.6099 0.132413C16.6099 0.132413 18.2896 -0.516846 18.1496 1.05999C18.103 1.70929 17.683 3.98179 17.3564 6.43979L16.2366 13.7211C16.2366 13.7211 16.1433 14.7878 15.3034 14.9733C14.4635 15.1588 13.2037 14.324 12.9704 14.1385C12.7838 13.9994 9.47099 11.9124 8.30449 10.8921C7.97787 10.6138 7.60458 10.0573 8.35112 9.40796L13.2504 4.77022C13.8103 4.2137 14.3702 2.9151 12.0372 4.49194L5.50494 8.89784C5.50494 8.89784 4.75836 9.36159 3.35861 8.9442L0.32573 8.01666C0.32573 8.01666 -0.794104 7.321 1.11894 6.6253C5.7849 4.44554 11.524 2.2194 16.6099 0.132413Z" fill="white"/>
</svg>
